# xmcd
#
# Track frame offsets:
#	150
#	21917
#	38006
#	58721
#	79011
#	93231
#	109951
#	128981
#
# Disc length: 1967 seconds
#
# Revision: 0
# Processed by: cddbd v1.5.1PL2 Copyright (c) Steve Scherf et al.
# Submitted via: dBpowerAMP V4.0
#
DISCID=6107ad08
DTITLE=Barry White - Thema Free
DYEAR=1900
DGENRE=Blues
TTITLE0=Never Gonna Give You Up
TTITLE1=Let The Music Play
TTITLE2=You Are My First The Last My Everything
TTITLE3=Cant Get Enough Of Your Love Baby
TTITLE4=I've Got So Much To Give
TTITLE5=What Am I Gonna Do With You
TTITLE6=I'm Gonna Love You Just A Little
TTITLE7=Love Theme
EXTD=
EXTT0=
EXTT1=
EXTT2=
EXTT3=
EXTT4=
EXTT5=
EXTT6=
EXTT7=
PLAYORDER=
